# File created by Blade
# Date/Time:  Wed Apr 08 17:20:14 2015
#---------------------------------------------------------
:version 1.10
:name HOM
:units
  mass 1.0
  length 1.000000
  angle deg
:documentation
     Acclaim Skeleton File
:root
   axis xyz
   order TX TY TZ RX RY RZ
   position 0.000000 0.000000 0.000000
   orientation 0 0 0
:bonedata
   begin
      id 1
      name Spine_dum
      direction 0.000000 1.000000 0.000000
      length 5.893853
      axis 0.0 0.0 0.0 xyz
   end
   begin
      id 2
      name LeftUpLeg_dum
      direction 1.000000 0.000000 0.000000
      length 3.697939
      axis 0.0 0.0 0.0 xyz
   end
   begin
      id 3
      name RightUpLeg_dum
      direction -1.000000 0.000000 0.000000
      length 3.697939
      axis 0.0 0.0 0.0 xyz
   end
   begin
      id 4
      name Spine
      direction 0.000000 1.000000 0.000000
      length 0.000000
      axis 0.0 0.0 0.0 xyz
      dof rx ry rz
   end
   begin
      id 5
      name Spine_dum1
      direction 0.000000 1.000000 0.000000
      length 16.447146
      axis 0.0 0.0 0.0 xyz
   end
   begin
      id 6
      name Spine_dum2
      direction 0.000000 1.000000 0.000000
      length 10.900383
      axis 0.0 0.0 0.0 xyz
   end
   begin
      id 7
      name Spine_dum3
      direction 0.000000 1.000000 0.000000
      length 10.900383
      axis 0.0 0.0 0.0 xyz
   end
   begin
      id 8
      name Head
      direction 0.000000 1.000000 0.000000
      length 4.527550
      axis 0.0 0.0 0.0 xyz
      dof rx ry rz
   end
   begin
      id 9
      name LeftShoulder
      direction 1.000000 0.000000 0.000000
      length 8.219464
      axis 0.0 0.0 -90.0 xyz
      dof rx ry rz
   end
   begin
      id 10
      name LeftArm
      direction 1.000000 0.000000 0.000000
      length 11.094937
      axis 0.0 0.0 -90.0 xyz
      dof rx ry rz
   end
   begin
      id 11
      name LeftForeArm
      direction 1.000000 0.000000 0.000000
      length 9.103875
      axis 0.0 0.0 -90.0 xyz
      dof ry rz rx
   end
   begin
      id 12
      name LeftHand
      direction 0.000000 0.000000 0.000000
      length 0.000000
      axis 0.0 0.0 -90.0 xyz
      dof rx ry rz
   end
   begin
      id 13
      name LeftHand_dum1
      direction 0.000000 0.000000 0.000000
      length 0.000000
      axis 0.0 0.0 -90.0 xyz
   end
   begin
      id 14
      name LeftHand_dum2
      direction 1.000000 0.000000 0.000000
      length 3.937000
      axis 0.0 0.0 -90.0 xyz
   end
   begin
      id 15
      name LeftHandThumb1
      direction 0.000000 0.000000 1.000000
      length 3.937000
      axis 0.0 0.0 -90.0 xyz
      dof rx rz ry
   end
   begin
      id 16
      name RightShoulder
      direction -1.000000 0.000000 0.000000
      length 8.219464
      axis 0.0 0.0 90.0 xyz
      dof rx ry rz
   end
   begin
      id 17
      name RightArm
      direction -1.000000 0.000000 0.000000
      length 11.094937
      axis 0.0 0.0 90.0 xyz
      dof rx ry rz
   end
   begin
      id 18
      name RightForeArm
      direction -1.000000 0.000000 0.000000
      length 9.103875
      axis 0.0 0.0 90.0 xyz
      dof ry rz rx
   end
   begin
      id 19
      name RightHand
      direction 0.000000 0.000000 0.000000
      length 0.000000
      axis 0.0 0.0 90.0 xyz
      dof rx ry rz
   end
   begin
      id 20
      name RightHand_dum1
      direction 0.000000 0.000000 0.000000
      length 0.000000
      axis 0.0 0.0 90.0 xyz
   end
   begin
      id 21
      name RightHand_dum2
      direction -1.000000 0.000000 0.000000
      length 3.937000
      axis 0.0 0.0 90.0 xyz
   end
   begin
      id 22
      name RightHandThumb1
      direction 0.000000 0.000000 1.000000
      length 3.937000
      axis 0.0 0.0 90.0 xyz
      dof rx rz ry
   end
   begin
      id 23
      name LeftUpLeg
      direction 0.000000 -1.000000 0.000000
      length 16.181467
      axis 0.0 0.0 0.0 xyz
      dof rx ry rz
   end
   begin
      id 24
      name LeftLeg
      direction 0.000000 -1.000000 0.000000
      length 16.501392
      axis 0.0 0.0 0.0 xyz
      dof rx ry rz
   end
   begin
      id 25
      name LeftFoot
      direction 0.000000 -0.258819 0.965926
      length 6.408245
      axis 15.0 0.0 0.0 xyz
      dof rx ry rz
   end
   begin
      id 26
      name LeftToeBase
      direction 0.000000 0.000000 1.000000
      length 2.952750
      axis 0.0 0.0 0.0 xyz
      dof rx ry rz
   end
   begin
      id 27
      name RightUpLeg
      direction 0.000000 -1.000000 0.000000
      length 16.181467
      axis 0.0 0.0 0.0 xyz
      dof rx ry rz
   end
   begin
      id 28
      name RightLeg
      direction 0.000000 -1.000000 0.000000
      length 16.501392
      axis 0.0 0.0 0.0 xyz
      dof rx ry rz
   end
   begin
      id 29
      name RightFoot
      direction 0.000000 -0.258819 0.965926
      length 6.408245
      axis 15.0 0.0 0.0 xyz
      dof rx ry rz
   end
   begin
      id 30
      name RightToeBase
      direction 0.000000 0.000000 1.000000
      length 2.952750
      axis 0.0 0.0 0.0 xyz
      dof rx ry rz
   end
:hierarchy
   begin
      root Spine_dum LeftUpLeg_dum RightUpLeg_dum
      Spine_dum Spine
      LeftUpLeg_dum LeftUpLeg
      RightUpLeg_dum RightUpLeg
      Spine Spine_dum1 Spine_dum2 Spine_dum3
      Spine_dum1 Head
      Spine_dum2 LeftShoulder
      Spine_dum3 RightShoulder
      LeftShoulder LeftArm
      LeftArm LeftForeArm
      LeftForeArm LeftHand
      LeftHand LeftHand_dum1 LeftHand_dum2
      LeftHand_dum1 LeftHandThumb1
      RightShoulder RightArm
      RightArm RightForeArm
      RightForeArm RightHand
      RightHand RightHand_dum1 RightHand_dum2
      RightHand_dum1 RightHandThumb1
      LeftUpLeg LeftLeg
      LeftLeg LeftFoot
      LeftFoot LeftToeBase
      RightUpLeg RightLeg
      RightLeg RightFoot
      RightFoot RightToeBase
   end

# File created by Blade
# Date/Time:  Wed Apr 08 17:19:54 2015
# Frame Rate: 120.000 fps
#------------------------------------------------------
:FULLY-SPECIFIED
:DEGREES
160
root 6.514378 36.094910 -0.367115 -13.795429 -72.419498 7.366611
Spine 11.984527 0.957029 -2.368951
Head 12.597615 9.490223 7.212018
LeftShoulder -8.910848 19.376717 13.445326
LeftArm 17.109177 6.823726 -80.121599
LeftForeArm 18.265190 0.000000 20.980203
LeftHand -12.468911 -0.000000 -9.886060
LeftHandThumb1 -26.253704 0.000000 33.147579
RightShoulder -32.766303 -48.495705 16.260998
RightArm 53.259239 -8.770046 52.084945
RightForeArm 3.926924 0.000000 20.955945
RightHand -1.728245 -0.000000 16.328893
RightHandThumb1 -24.326973 -0.000000 -32.862282
LeftUpLeg 10.613723 12.345801 -6.034663
LeftLeg 4.721642 -0.000000 -0.000000
LeftFoot -12.166652 5.700643 -7.915838
LeftToeBase 12.157017 -0.000000 -0.000000
RightUpLeg -29.264450 -0.661425 -0.235056
RightLeg 116.715558 -0.000000 -0.000000
RightFoot -25.084889 -16.074587 13.137136
RightToeBase -8.094526 -0.000000 0.000000
161
root 6.486100 36.096756 -0.346123 -13.526246 -72.265755 7.029363
Spine 11.919620 1.041855 -2.365954
Head 12.989923 9.296510 7.398054
LeftShoulder -8.855809 19.320686 13.518926
LeftArm 17.078187 7.067542 -80.220851
LeftForeArm 18.117450 -0.000000 21.164886
LeftHand -12.441277 -0.000000 -9.946355
LeftHandThumb1 -26.253704 0.000000 33.147579
RightShoulder -32.815629 -48.482787 16.341588
RightArm 53.197904 -9.254672 52.153698
RightForeArm 3.907274 -0.000000 20.997134
RightHand -1.758986 -0.000000 16.300167
RightHandThumb1 -24.326973 -0.000000 -32.862282
LeftUpLeg 10.727188 12.100099 -6.017432
LeftLeg 4.679310 -0.000000 -0.000000
LeftFoot -12.069777 5.942641 -7.663200
LeftToeBase 11.709637 -0.000000 -0.000000
RightUpLeg -28.875673 -0.656112 0.132522
RightLeg 116.608261 -0.000000 -0.000000
RightFoot -24.953196 -16.090929 13.061510
RightToeBase -8.347206 -0.000000 0.000000
162
root 6.460074 36.094925 -0.328458 -13.286268 -72.130428 6.743523
Spine 11.846144 1.114338 -2.388698
Head 13.367387 9.112458 7.591720
LeftShoulder -8.871826 19.260590 13.592819
LeftArm 17.072742 7.307578 -80.316285
LeftForeArm 18.028360 -0.000000 21.300308
LeftHand -12.334132 -0.000000 -9.946976
LeftHandThumb1 -26.253704 0.000000 33.147579
RightShoulder -32.838523 -48.479924 16.399252
RightArm 53.157981 -9.699513 52.252191
RightForeArm 3.807522 -0.000000 21.051198
RightHand -1.812008 -0.000000 16.338402
RightHandThumb1 -24.326973 -0.000000 -32.862282
LeftUpLeg 10.794951 11.864741 -6.013727
LeftLeg 4.679299 -0.000000 -0.000000
LeftFoot -12.068695 6.222363 -7.308239
LeftToeBase 11.511701 -0.000000 -0.000000
RightUpLeg -28.467054 -0.573301 0.493347
RightLeg 116.400123 -0.000000 -0.000000
RightFoot -24.895944 -15.979059 13.070210
RightToeBase -8.307635 -0.000000 0.000000
163
root 6.435249 36.090142 -0.311388 -13.053555 -71.993404 6.466380
Spine 11.781514 1.182789 -2.403748
Head 13.729272 8.925242 7.755135
LeftShoulder -8.899721 19.227933 13.645108
LeftArm 17.110889 7.681428 -80.321848
LeftForeArm 17.843109 -0.000000 21.447953
LeftHand -12.333651 0.000000 -9.888020
LeftHandThumb1 -26.253704 0.000000 33.147579
RightShoulder -32.893579 -48.482853 16.499652
RightArm 53.130207 -10.134754 52.270345
RightForeArm 3.892845 -0.000000 21.170821
RightHand -1.820244 -0.000000 16.325269
RightHandThumb1 -24.326973 -0.000000 -32.862282
LeftUpLeg 10.849827 11.528227 -6.035043
LeftLeg 4.703560 -0.000000 -0.000000
LeftFoot -12.057543 6.562533 -7.024875
LeftToeBase 11.076291 -0.000000 -0.000000
RightUpLeg -28.025185 -0.487012 0.844938
RightLeg 116.086570 -0.000000 -0.000000
RightFoot -24.767662 -15.921650 12.991693
RightToeBase -8.387983 -0.000000 0.000000
164
root 6.413717 36.082175 -0.291153 -12.907738 -71.908359 6.310038
Spine 11.689024 1.324076 -2.433585
Head 14.088915 8.695753 7.898693
LeftShoulder -8.874801 19.100768 13.731013
LeftArm 17.049518 7.858458 -80.412822
LeftForeArm 17.858074 -0.000000 21.542602
LeftHand -12.174470 -0.000000 -10.033250
LeftHandThumb1 -26.253704 0.000000 33.147579
RightShoulder -32.996310 -48.498280 16.653513
RightArm 53.119352 -10.538647 52.220949
RightForeArm 4.060053 -0.000000 21.322751
RightHand -1.813196 0.000000 16.302632
RightHandThumb1 -24.326973 -0.000000 -32.862282
LeftUpLeg 10.875244 11.216381 -6.097711
LeftLeg 4.726896 -0.000000 -0.000000
LeftFoot -12.067200 6.912101 -6.734929
LeftToeBase 10.667610 -0.000000 -0.000000
RightUpLeg -27.589539 -0.340545 1.149221
RightLeg 115.720915 -0.000000 -0.000000
RightFoot -24.638197 -15.932921 12.948710
RightToeBase -8.578494 -0.000000 0.000000
165
root 6.394377 36.070973 -0.271088 -12.883053 -71.856924 6.295543
Spine 11.597829 1.482631 -2.499493
Head 14.405390 8.483582 8.034048
LeftShoulder -8.864044 19.022728 13.778638
LeftArm 17.023066 8.094566 -80.413318
LeftForeArm 17.856873 0.000000 21.689331
LeftHand -12.136288 -0.000000 -10.044340
LeftHandThumb1 -26.253704 0.000000 33.147579
RightShoulder -33.068471 -48.503272 16.786799
RightArm 53.109268 -10.881511 52.229708
RightForeArm 4.227576 -0.000000 21.450966
RightHand -1.808046 -0.000000 16.409484
RightHandThumb1 -24.326973 -0.000000 -32.862282
LeftUpLeg 10.890760 10.912076 -6.198389
LeftLeg 4.742329 -0.000000 -0.000000
LeftFoot -12.114431 7.223178 -6.573006
LeftToeBase 10.442677 -0.000000 -0.000000
RightUpLeg -27.142173 -0.160362 1.401015
RightLeg 115.319719 -0.000000 -0.000000
RightFoot -24.603473 -15.970572 12.942832
RightToeBase -8.643227 -0.000000 0.000000
166
root 6.380185 36.057742 -0.247502 -12.954107 -71.833961 6.404110
Spine 11.500028 1.647318 -2.587578
Head 14.694509 8.288279 8.142082
LeftShoulder -8.922101 19.010575 13.776406
LeftArm 17.091284 8.465631 -80.316755
LeftForeArm 17.801534 0.000000 21.841427
LeftHand -12.139045 -0.000000 -10.066974
LeftHandThumb1 -26.253704 0.000000 33.147579
RightShoulder -33.171978 -48.532599 16.957098
RightArm 53.166976 -11.235209 52.094185
RightForeArm 4.554593 -0.000000 21.597103
RightHand -1.791543 -0.000000 16.365666
RightHandThumb1 -24.326973 -0.000000 -32.862282
LeftUpLeg 10.896446 10.594164 -6.343295
LeftLeg 4.728519 -0.000000 -0.000000
LeftFoot -12.173754 7.532995 -6.495690
LeftToeBase 10.304341 -0.000000 -0.000000
RightUpLeg -26.700744 0.041784 1.591654
RightLeg 114.871277 -0.000000 -0.000000
RightFoot -24.602832 -16.211658 13.031576
RightToeBase -8.835502 -0.000000 0.000000
167
root 6.368729 36.040738 -0.221588 -13.161709 -71.841612 6.679560
Spine 11.381289 1.815568 -2.708308
Head 14.980265 8.133034 8.186810
LeftShoulder -8.947193 18.978251 13.718062
LeftArm 17.081080 8.619591 -80.226490
LeftForeArm 17.940544 -0.000000 22.035429
LeftHand -12.163497 -0.000000 -10.150474
LeftHandThumb1 -26.253704 0.000000 33.147579
RightShoulder -33.230889 -48.559515 17.065727
RightArm 53.226277 -11.574618 51.983986
RightForeArm 4.939167 -0.000000 21.736310
RightHand -1.814997 0.000000 16.385600
RightHandThumb1 -24.326973 -0.000000 -32.862282
LeftUpLeg 10.878037 10.263434 -6.543688
LeftLeg 4.720482 -0.000000 -0.000000
LeftFoot -12.220937 7.840841 -6.408837
LeftToeBase 10.056784 -0.000000 -0.000000
RightUpLeg -26.263252 0.280215 1.722361
RightLeg 114.420529 -0.000000 -0.000000
RightFoot -24.660010 -16.577711 13.138415
RightToeBase -9.201715 -0.000000 0.000000
168
root 6.362401 36.021533 -0.195494 -13.427910 -71.874271 7.041386
Spine 11.253762 1.983102 -2.848919
Head 15.241218 7.988509 8.224663
LeftShoulder -8.982813 18.955097 13.643288
LeftArm 17.060108 8.661517 -80.142757
LeftForeArm 18.044987 -0.000000 22.210601
LeftHand -11.970532 -0.000000 -10.314735
LeftHandThumb1 -26.253704 0.000000 33.147579
RightShoulder -33.221957 -48.568310 17.112126
RightArm 53.258486 -11.882063 51.912803
RightForeArm 5.407109 -0.000000 21.848987
RightHand -1.666160 -0.000000 16.449938
RightHandThumb1 -24.326973 -0.000000 -32.862282
LeftUpLeg 10.830238 9.932515 -6.772605
LeftLeg 4.706184 -0.000000 -0.000000
LeftFoot -12.361311 8.118746 -6.485385
LeftToeBase 9.997827 -0.000000 -0.000000
RightUpLeg -25.833850 0.587277 1.814020
RightLeg 113.975823 -0.000000 -0.000000
RightFoot -24.700893 -16.851627 13.302646
RightToeBase -8.624667 -0.000000 0.000000
